<mxfile host="app.diagrams.net" modified="2023-09-29T11:40:57.316Z" agent="Mozilla/5.0 (Macintosh; Intel Mac OS X 10.15; rv:109.0) Gecko/20100101 Firefox/118.0" version="21.8.2" etag="sm6Up6SKhg7hEKPzPy-1" type="github">
  <diagram name="PÃ¡gina-1" id="cnPoAJSbj-hPmukd82Dz">
    <mxGraphModel>
      <root>
        <mxCell id="0" />
        <mxCell id="1" parent="0" />
      </root>
    </mxGraphModel>
  </diagram>
</mxfile>
